# xmcd
#
# Track frame offsets:
# 150
# 17415
# 35392
# 50647
# 71341
# 88460
# 102811
# 121466
# 142477
# 158920
# 176188
# 189688
# 205938
# 223830
# 239655
#
# Disc length: 3360 seconds
#
#
# Revision: 3
# Processed by: cddbd v1.5.2PL0 Copyright (c) Steve Scherf et al.
# Submitted via: FreeRIP 2.951 
#
DISCID=ea0d1e0f
DTITLE=O Melhor Sertanejo Romantico - O Melhor Sertanejo Romantico
DYEAR=2003
DGENRE=Sertanejo
TTITLE0=Zeze Di Camargo e Luciano - Pra Mudar a Minha Vida
TTITLE1=Bruno e Marrone - Vai Dar Namoro
TTITLE2=Leonardo - Brincadeira Tem Hora
TTITLE3=Daniel - Evidencias
TTITLE4=Rick e Rener - Nos Bares da Cidade
TTITLE5=Juliano Cesar - Madrugada Triste
TTITLE6=Gian e Giovani - Na batida do seu coracao
TTITLE7=Guilherme e Santiago - O Nosso Amor
TTITLE8=Marlon e Maicon - Voce Vai se Arrempeder
TTITLE9=Andre e Adriano - Mordida de Amor
TTITLE10=Teodoro e Sampaio - Mulher Chorona
TTITLE11=Rio Negro e Solimoes - Aonde Anda Voce
TTITLE12=Mato Grosso e Mathias - Tentei te Esquescer
TTITLE13=Fred e Pedrito - Ta Faltando Voce
TTITLE14=Edson and Hudson - A Força da Paixão
EXTD=
EXTT0=
EXTT1=
EXTT2=
EXTT3=
EXTT4=
EXTT5=
EXTT6=
EXTT7=
EXTT8=
EXTT9=
EXTT10=
EXTT11=
EXTT12=
EXTT13=
EXTT14=
PLAYORDER=
